<?xml version="1.0" standalone="no"?>
<!DOCTYPE svg PUBLIC "-//W3C//DTD SVG 20010904//EN"
 "http://www.w3.org/TR/2001/REC-SVG-20010904/DTD/svg10.dtd">
<svg version="1.0" xmlns="http://www.w3.org/2000/svg"
 width="692.000000pt" height="696.000000pt" viewBox="0 0 692.000000 696.000000"
 preserveAspectRatio="xMidYMid meet">

<g transform="translate(0.000000,696.000000) scale(0.100000,-0.100000)"
fill="#000000" stroke="none">
<path d="M3220 5889 c-108 -11 -311 -50 -415 -80 -299 -86 -620 -251 -868
-445 -107 -84 -342 -325 -426 -437 -345 -461 -518 -1004 -497 -1557 25 -668
281 -1246 754 -1701 531 -512 1253 -757 1982 -673 1105 126 1982 970 2157
2076 26 161 25 554 -1 723 -66 436 -248 850 -521 1190 -85 105 -270 291 -370
370 -347 277 -746 451 -1185 520 -126 20 -475 28 -610 14z m595 -43 c513 -79
971 -305 1344 -661 190 -182 363 -421 486 -670 143 -291 215 -544 245 -870 76
-819 -291 -1641 -953 -2139 -341 -256 -713 -410 -1142 -472 -147 -22 -476 -24
-615 -5 -597 82 -1114 350 -1503 780 -331 364 -535 796 -608 1286 -29 192 -31
510 -5 680 113 744 527 1365 1167 1751 313 188 622 287 1059 338 74 9 430 -4
525 -18z"/>
<path d="M3317 5613 c-3 -5 1 -114 9 -243 7 -129 13 -250 14 -267 l0 -33 64 0
c36 0 67 4 71 10 5 9 -9 347 -21 478 l-6 62 -63 0 c-35 0 -66 -3 -68 -7z"/>
<path d="M3586 5608 c-6 -18 -38 -529 -34 -533 9 -8 127 -15 131 -7 3 4 13
126 23 271 15 227 16 264 3 272 -22 14 -119 11 -123 -3z"/>
<path d="M3851 5550 c-6 -28 -11 -55 -11 -59 0 -7 96 -31 126 -31 7 0 15 19
19 43 3 23 8 49 11 58 3 13 -8 19 -52 28 -82 16 -81 16 -93 -39z"/>
<path d="M4130 5415 c-10 -31 -16 -36 -37 -32 -19 3 -27 -2 -38 -24 -21 -40
-19 -70 5 -76 11 -3 20 -9 20 -14 0 -4 -20 -65 -45 -136 -25 -70 -45 -128 -45
-129 0 -6 102 -44 117 -44 15 0 27 26 62 131 l43 131 34 -7 c32 -6 36 -4 49
29 22 52 19 63 -21 76 -25 9 -34 16 -30 27 21 53 19 63 -16 77 -76 32 -85 31
-98 -9z"/>
<path d="M3830 5438 c0 -2 -16 -83 -35 -182 -19 -98 -35 -184 -35 -191 0 -12
127 -43 134 -34 1 2 18 89 38 192 l35 189 -21 7 c-23 9 -116 24 -116 19z"/>
<path d="M3036 5420 c-37 -12 -85 -56 -102 -97 -8 -18 -14 -54 -14 -81 0 -148
104 -243 232 -213 106 24 142 69 100 122 -18 21 -20 22 -43 5 -37 -26 -98 -39
-115 -25 -24 20 -16 27 45 45 71 19 101 48 108 102 15 108 -89 178 -211 142z
m82 -137 c3 -17 -3 -26 -23 -33 -31 -12 -45 -6 -45 19 0 43 62 56 68 14z"/>
<path d="M2678 5305 l-47 -25 24 -52 c12 -29 37 -82 54 -117 33 -71 29 -105
-12 -99 -17 2 -35 29 -79 120 l-57 117 -51 -21 c-29 -12 -54 -27 -57 -34 -2
-6 25 -73 60 -148 69 -142 99 -176 157 -176 39 1 106 35 130 68 20 26 26 29
65 24 38 -4 45 -1 60 22 15 23 15 30 4 68 -12 36 -19 44 -43 46 -25 3 -33 15
-82 118 -30 63 -60 114 -66 114 -7 -1 -34 -12 -60 -25z"/>
<path d="M2171 5200 c-28 -22 -51 -46 -51 -53 0 -7 25 -43 55 -80 30 -36 55
-69 55 -72 0 -6 -54 -55 -75 -67 -7 -4 -34 22 -71 68 -32 40 -62 74 -66 74 -3
0 -30 -18 -58 -41 -36 -29 -50 -46 -47 -59 6 -22 318 -409 331 -409 13 -1 116
78 116 88 0 5 -25 40 -55 76 -30 37 -55 71 -55 75 0 3 19 22 42 40 l41 33 31
-39 c17 -21 45 -54 62 -73 28 -31 33 -33 51 -20 34 24 78 64 86 76 5 8 -53 87
-158 215 -91 112 -169 204 -174 206 -5 1 -31 -16 -60 -38z"/>
<path d="M4401 5209 c-16 -46 -16 -45 44 -73 56 -25 61 -31 46 -54 -6 -10 -18
-8 -56 12 -71 38 -119 35 -161 -9 -88 -93 -25 -235 104 -235 35 0 41 -4 52
-30 24 -58 75 -66 114 -19 29 35 33 66 10 83 -14 10 -10 21 27 86 71 126 56
185 -65 245 -70 35 -101 33 -115 -6z m23 -195 c21 -8 20 -27 -3 -55 l-20 -24
-20 20 c-19 19 -20 22 -5 43 16 23 23 26 48 16z"/>
<path d="M4742 4964 c-50 -35 -64 -103 -36 -174 9 -22 13 -47 10 -56 -6 -15
-9 -14 -31 6 -13 13 -29 38 -36 57 -9 28 -14 33 -32 28 -35 -10 -69 -54 -61
-78 23 -79 119 -157 192 -157 38 0 50 5 85 40 38 38 39 43 34 85 -4 25 -13 59
-22 75 -34 65 -5 82 43 24 l29 -35 37 15 c24 10 36 22 36 34 0 24 -82 117
-121 137 -37 20 -99 19 -127 -1z"/>
<path d="M2240 4329 c1 -306 113 -566 338 -781 44 -42 107 -91 141 -109 l61
-34 0 -65 c0 -93 17 -188 43 -241 l23 -46 -31 -55 c-16 -30 -65 -93 -109 -139
-43 -46 -94 -108 -114 -136 -19 -29 -37 -53 -39 -53 -2 0 -23 13 -46 28 -45
31 -98 52 -130 52 -12 0 -40 -9 -64 -21 -90 -44 -115 -149 -74 -311 28 -108
62 -168 141 -251 73 -78 154 -127 205 -127 48 1 108 33 152 84 22 25 47 46 56
46 8 0 44 -44 81 -99 87 -130 214 -262 286 -295 95 -44 150 -52 223 -32 83 23
151 86 149 138 -2 42 -25 110 -57 164 -14 24 -25 44 -25 46 0 2 45 3 99 4 l99
0 -18 -35 c-24 -48 -50 -138 -50 -173 0 -36 61 -105 115 -129 156 -71 341 45
491 308 l41 72 29 -31 c36 -38 98 -67 142 -68 88 0 242 131 305 261 51 103 75
230 58 305 -22 98 -90 152 -175 140 -44 -7 -147 -65 -175 -99 -20 -25 -26 -22
-59 36 -16 28 -49 77 -73 107 -24 30 -58 86 -76 123 -18 37 -47 88 -64 113
l-31 46 16 52 c19 57 37 207 33 275 l-2 45 81 32 c244 95 458 340 524 598 27
107 26 122 -7 129 -16 4 -61 13 -101 22 -120 26 -235 33 -370 24 -149 -10
-242 -28 -336 -63 l-68 -26 -77 20 c-100 25 -224 40 -336 40 -99 0 -293 -29
-367 -54 l-48 -17 -52 41 c-62 50 -121 81 -231 121 -159 59 -254 80 -394 86
l-133 6 0 -74z m326 -9 c165 -38 363 -125 441 -193 l34 -30 108 27 c130 32
307 49 416 41 83 -7 241 -36 286 -53 20 -8 36 -6 69 9 162 72 521 101 700 55
30 -8 52 -15 49 -15 -192 -29 -351 -88 -499 -186 -65 -44 -163 -135 -144 -135
5 0 28 18 49 41 36 36 164 129 178 129 3 0 -4 -24 -17 -52 -13 -29 -33 -87
-45 -128 -12 -41 -33 -92 -47 -112 -13 -21 -20 -38 -15 -38 6 0 21 19 35 43
l26 42 0 -60 c0 -42 -6 -70 -20 -92 -11 -18 -15 -33 -10 -33 28 0 52 102 40
169 -6 34 -3 59 17 120 43 134 58 156 124 186 114 51 279 95 355 95 31 0 30
-10 -6 -122 -39 -124 -89 -205 -185 -306 -115 -122 -204 -176 -362 -223 -24
-7 -43 -17 -44 -23 0 -6 0 -54 1 -106 2 -106 -14 -218 -35 -260 -14 -27 -12
-32 34 -108 119 -199 155 -357 133 -591 -7 -69 -15 -136 -18 -148 -4 -13 -2
-23 4 -23 25 0 46 260 32 396 -6 57 -14 112 -17 122 -6 15 -5 15 10 3 21 -17
80 -121 98 -173 7 -21 17 -38 22 -38 5 0 28 20 53 44 56 56 135 96 190 96 35
0 47 -5 73 -35 28 -32 31 -42 31 -102 0 -229 -153 -455 -309 -455 -76 0 -127
33 -137 89 -4 19 -12 37 -20 40 -25 9 -45 -14 -78 -89 -39 -89 -109 -197 -163
-252 -106 -107 -298 -124 -359 -31 -23 35 -3 116 56 232 26 51 44 96 39 99 -5
2 -22 -2 -40 -11 -67 -35 -232 -35 -315 0 -18 7 -35 11 -38 7 -2 -4 18 -43 45
-87 74 -120 105 -215 81 -252 -15 -23 -97 -53 -148 -53 -61 0 -144 23 -193 55
-76 47 -212 215 -267 328 l-29 58 -49 -3 c-51 -3 -56 -8 -73 -63 -11 -39 -62
-64 -129 -65 -44 0 -61 6 -113 41 -92 61 -147 151 -181 291 -23 98 -25 147 -6
192 36 87 136 87 253 0 17 -13 34 -24 36 -24 3 0 24 33 46 74 35 64 148 203
157 194 1 -2 -6 -44 -18 -93 -27 -119 -29 -300 -4 -407 9 -43 21 -80 27 -83
12 -8 11 0 -6 65 -23 82 -29 222 -16 325 14 105 46 200 100 301 l39 72 -26 64
c-21 52 -26 85 -31 193 l-6 130 -60 30 c-87 44 -178 110 -223 164 -100 119
-186 281 -221 416 -21 82 -42 285 -30 285 4 0 13 -7 20 -17 21 -25 102 -82
222 -157 59 -37 111 -75 116 -84 18 -34 63 -224 58 -243 -9 -34 10 -127 34
-165 12 -19 24 -33 26 -30 3 3 -5 20 -18 37 -17 25 -24 50 -27 99 l-3 65 16
-32 c9 -17 26 -40 37 -50 15 -13 12 -4 -10 32 -26 43 -61 142 -86 248 -6 26
-5 27 13 17 48 -25 142 -114 167 -155 30 -51 45 -55 19 -5 -29 57 -101 116
-313 259 -114 77 -220 154 -237 171 l-30 32 90 -7 c50 -4 126 -15 171 -25z"/>
<path d="M3144 3788 c-22 -10 -49 -56 -39 -66 3 -3 5 0 5 6 0 6 9 16 21 22 16
9 25 8 40 -6 27 -24 24 -52 -7 -66 -23 -11 -29 -10 -44 10 -10 12 -21 22 -25
22 -4 0 -5 -27 -3 -60 5 -70 31 -113 71 -118 82 -10 117 169 47 240 -31 31
-35 32 -66 16z"/>
<path d="M3781 3772 c-70 -70 -35 -250 47 -240 17 2 35 15 50 38 20 30 23 44
20 102 -3 58 -8 72 -33 98 -36 37 -49 38 -84 2z m57 -59 c-7 -56 -69 -55 -76
1 -3 20 2 28 20 35 33 13 60 -4 56 -36z"/>
<path d="M3423 3432 c-29 -9 -63 -38 -63 -55 0 -22 58 -84 95 -101 28 -14 35
-22 35 -46 0 -29 -1 -30 -48 -30 -55 0 -134 24 -175 53 -16 10 -31 17 -34 14
-30 -31 118 -96 220 -97 l37 0 0 -135 c0 -78 4 -135 9 -135 6 0 9 54 8 132
l-2 133 60 7 c95 12 194 55 195 86 0 16 -7 15 -38 -7 -39 -27 -119 -51 -169
-51 -41 0 -43 1 -43 30 0 22 7 33 28 44 15 8 44 32 65 53 33 35 37 43 28 66
-7 18 -22 29 -48 36 -41 12 -125 13 -160 3z"/>
<path d="M4796 1959 c-59 -47 -12 -124 54 -86 40 24 62 22 58 -5 -2 -14 -15
-29 -35 -38 -41 -19 -42 -32 -1 -28 40 4 73 46 64 81 -8 35 -40 43 -87 21 -29
-13 -43 -14 -51 -6 -14 14 5 40 39 53 13 5 23 13 23 19 0 17 -36 11 -64 -11z"/>
<path d="M2092 1846 c-60 -77 -60 -80 -11 -115 23 -17 47 -31 54 -31 19 0 45
34 45 58 0 12 4 22 9 22 13 0 41 29 41 42 0 13 -70 78 -85 78 -5 0 -29 -24
-53 -54z m92 -8 c18 -29 -6 -44 -38 -23 -21 14 -24 20 -15 32 15 17 38 13 53
-9z m-34 -63 c11 -13 11 -19 -3 -32 -14 -15 -18 -15 -41 1 -28 18 -33 35 -14
54 12 12 36 3 58 -23z"/>
<path d="M4580 1790 c-43 -43 -34 -112 19 -143 34 -20 51 -21 85 -6 53 24 58
110 9 149 -33 26 -87 26 -113 0z m109 -41 c20 -36 8 -77 -26 -85 -31 -8 -53 3
-73 39 -11 20 -12 30 -2 52 10 22 17 26 49 23 28 -2 41 -10 52 -29z"/>
<path d="M2312 1674 c-40 -30 -70 -59 -67 -64 4 -6 15 -4 28 5 20 13 26 12 55
-6 21 -14 32 -29 32 -45 0 -31 16 -31 24 -1 11 47 19 167 10 167 -5 0 -42 -25
-82 -56z m58 -24 c0 -33 -2 -35 -31 -19 -20 10 -20 11 -3 30 24 27 34 24 34
-11z"/>
<path d="M4363 1662 c-29 -14 -53 -32 -53 -40 0 -8 6 -12 13 -9 6 3 19 8 27
11 12 5 24 -11 48 -59 30 -62 52 -83 52 -50 0 9 -13 42 -29 74 l-30 58 25 12
c14 6 22 16 19 21 -8 14 -12 13 -72 -18z"/>
<path d="M2550 1610 c-28 -28 -25 -39 16 -81 20 -21 33 -42 30 -48 -11 -18
-45 -13 -63 9 -24 27 -48 27 -33 0 29 -54 100 -63 122 -14 10 22 8 28 -26 63
-52 53 -30 86 27 41 30 -24 37 -25 37 -5 0 16 -55 55 -77 55 -7 0 -22 -9 -33
-20z"/>
<path d="M4126 1518 c-9 -76 -7 -136 3 -143 5 -3 11 7 13 21 2 21 11 30 42 41
35 12 41 11 58 -4 28 -25 34 -6 7 25 -51 58 -103 112 -110 112 -3 0 -9 -24
-13 -52z m62 -50 c-26 -16 -38 -8 -38 24 l0 31 25 -23 c19 -18 22 -26 13 -32z"/>
<path d="M2782 1533 c-12 -23 -42 -127 -42 -145 0 -18 89 -43 103 -29 6 6 -5
14 -32 22 -41 12 -48 22 -32 47 6 9 19 11 45 7 47 -9 48 10 0 25 -25 8 -34 16
-30 27 3 8 6 17 6 19 0 3 20 2 45 -2 60 -9 59 9 -2 30 -57 19 -50 20 -61 -1z"/>
<path d="M3842 1479 c-16 -6 -22 -14 -18 -26 3 -10 12 -47 20 -82 8 -34 16
-65 19 -67 9 -10 108 29 117 46 17 31 12 85 -11 114 -16 21 -29 26 -62 25 -23
0 -52 -4 -65 -10z m99 -30 c14 -14 19 -30 17 -57 -3 -32 -7 -38 -38 -49 -35
-11 -35 -11 -47 25 -17 56 -16 90 5 95 33 9 42 7 63 -14z"/>
<path d="M3167 1452 c-4 -5 -9 -45 -13 -89 l-7 -80 47 -6 c59 -8 83 4 102 50
17 40 11 83 -14 106 -20 18 -107 33 -115 19z m94 -43 c16 -16 20 -28 15 -52
-9 -43 -24 -57 -62 -57 -33 0 -34 1 -34 43 0 66 9 87 36 87 13 0 33 -9 45 -21z"/>
<path d="M3430 1373 c0 -109 4 -114 63 -111 66 4 77 28 13 28 -42 0 -46 2 -46
24 0 21 5 25 38 28 48 4 48 22 -1 26 -33 3 -38 6 -35 25 2 17 11 23 38 25 63
6 58 22 -8 22 l-62 0 0 -67z"/>
</g>
</svg>
